<?xml version="1.0" encoding="UTF-8"?>
<svg xmlns="http://www.w3.org/2000/svg" xmlns:xlink="http://www.w3.org/1999/xlink" viewBox="0 0 96 96" width="96px" height="96px">
<g id="surface10620109">
<path style=" stroke:none;fill-rule:nonzero;fill:rgb(90.588236%,29.803923%,23.529412%);fill-opacity:1;" d="M 48 8 C 26 8 8 26 8 48 C 8 70 26 88 48 88 C 70 88 88 70 88 48 C 88 26 70 8 48 8 Z M 50 12.199219 C 61.800781 12.800781 72 19 78 28.398438 L 76.199219 29.398438 C 75 27.601562 73.601562 25.800781 72 24.199219 L 67.601562 28.601562 C 64.199219 25.199219 60 22.800781 55.398438 21.601562 L 57 15.601562 C 54.800781 15 52.601562 14.601562 50.199219 14.601562 L 50.199219 12.199219 Z M 59.601562 45.199219 C 59.601562 45.601562 59.800781 45.800781 59.800781 46.199219 C 59.800781 46.398438 59.800781 46.398438 59.800781 46.601562 C 59.800781 47 59.800781 47.601562 59.800781 48 C 59.800781 48.398438 59.800781 49 59.800781 49.398438 C 59.800781 49.601562 59.800781 49.601562 59.800781 49.800781 C 59.800781 50.199219 59.601562 50.601562 59.601562 50.800781 L 59.601562 51 L 69.199219 53.601562 C 68.199219 57.398438 66.199219 60.800781 63.601562 63.398438 L 56.601562 56.398438 C 56.199219 56.800781 56 57 55.601562 57.398438 L 55.398438 57.601562 C 55 57.800781 54.800781 58 54.398438 58.199219 L 54.199219 58.398438 C 53.800781 58.601562 53.398438 58.800781 52.800781 59 C 52.398438 59.199219 52 59.398438 51.398438 59.398438 C 51.398438 59.398438 51.398438 59.398438 51.199219 59.398438 L 53.800781 69 C 51.800781 69.800781 50 70 48 70 C 46 70 44.199219 69.800781 42.398438 69.199219 L 45 59.601562 L 44.800781 59.601562 C 44.398438 59.398438 44 59.398438 43.601562 59.199219 C 43.601562 59.199219 43.601562 59.199219 43.398438 59.199219 C 43 59 42.601562 58.800781 42.199219 58.601562 C 42 58.601562 42 58.398438 41.800781 58.398438 C 41.601562 58.199219 41.199219 58 41 57.800781 C 40.800781 57.800781 40.800781 57.601562 40.601562 57.601562 C 40.199219 57.398438 39.800781 57 39.601562 56.601562 L 32.601562 63.601562 C 30 61 28 57.601562 27 53.800781 L 36.601562 51.199219 L 36.601562 51 C 36.601562 50.601562 36.398438 50.398438 36.398438 50 C 36.398438 49.800781 36.398438 49.800781 36.398438 49.601562 C 36.398438 49.199219 36.398438 48.601562 36.398438 48.199219 C 36.398438 47.800781 36.398438 47.199219 36.398438 46.800781 C 36.398438 46.601562 36.398438 46.601562 36.398438 46.398438 C 36.398438 46 36.601562 45.800781 36.601562 45.398438 L 36.601562 45.199219 L 27 42.601562 C 28 38.800781 30 35.398438 32.601562 32.800781 L 39.601562 39.800781 C 40 39.398438 40.199219 39.199219 40.601562 38.800781 C 40.601562 38.800781 40.800781 38.601562 41 38.601562 C 41.199219 38.398438 41.601562 38.199219 42 38 L 42.199219 37.800781 C 43 37.398438 44 37 44.800781 36.601562 C 44.800781 36.601562 44.800781 36.601562 45 36.601562 L 42.398438 27 C 44.199219 26.199219 46 26 48 26 C 50 26 51.800781 26.199219 53.601562 26.800781 L 51 36.398438 L 51.199219 36.398438 C 51.601562 36.601562 52 36.601562 52.398438 36.800781 L 52.601562 36.800781 C 53 37 53.398438 37.199219 53.800781 37.398438 C 54 37.398438 54 37.601562 54.199219 37.601562 C 54.398438 37.800781 54.800781 38 55 38.199219 C 55.199219 38.199219 55.199219 38.398438 55.398438 38.398438 C 55.800781 38.601562 56 39 56.398438 39.199219 L 63.398438 32.199219 C 66 34.800781 68 38.199219 69 42 L 59.398438 44.601562 C 59.601562 45 59.601562 45 59.601562 45.199219 Z M 46 12.199219 L 46 14.199219 C 43.601562 14.398438 41.398438 14.800781 39.199219 15.199219 L 40.800781 21.199219 C 36.199219 22.398438 32 24.800781 28.601562 28.199219 L 24 24 C 22.398438 25.601562 21 27.398438 19.601562 29.398438 L 18 28.199219 C 24 19 34.199219 12.800781 46 12.199219 Z M 16 64.199219 C 13.601562 59.398438 12 53.800781 12 48 C 12 42.199219 13.398438 36.601562 16 31.800781 L 17.800781 32.800781 C 16.800781 34.800781 16 37 15.398438 39.199219 L 21.398438 41.199219 C 20.800781 43.398438 20.601562 45.601562 20.601562 48 C 20.601562 50.398438 21 52.800781 21.601562 55 L 15.601562 56.800781 C 16.199219 59 17 61.199219 18 63.199219 Z M 46 83.800781 C 34.199219 83.199219 24 77 18 67.601562 L 19.800781 66.601562 C 21 68.398438 22.398438 70.199219 24 71.800781 L 28.398438 67.398438 C 31.601562 70.601562 35.800781 73 40.398438 74.398438 L 39.199219 80.601562 C 41.398438 81.199219 43.601562 81.601562 46 81.601562 Z M 50 83.800781 L 50 81.800781 C 52.398438 81.601562 54.601562 81.398438 56.800781 80.800781 L 55.199219 74.800781 C 59.800781 73.601562 64 71.199219 67.398438 67.800781 L 72 72 C 73.601562 70.398438 75 68.601562 76.199219 66.800781 L 78 67.800781 C 72 77 61.800781 83.199219 50 83.800781 Z M 78.199219 63.199219 C 79.199219 61.199219 80 59 80.601562 56.800781 L 74.601562 55.199219 C 75.199219 53 75.601562 50.601562 75.601562 48 C 75.601562 45.601562 75.199219 43.398438 74.800781 41.199219 L 80.800781 39.199219 C 80.199219 37 79.398438 34.800781 78.199219 32.601562 L 80 31.601562 C 82.601562 36.601562 84 42 84 48 C 84 53.800781 82.601562 59.398438 80 64.199219 Z M 78.199219 63.199219 "/>
</g>
</svg>
